<svg width="287" height="40" viewBox="0 0 287 40" fill="none" xmlns="http://www.w3.org/2000/svg">
<path d="M22.6793 2.85474H14.0595L0 39.3331H7.87127L10.4098 32.2476H26.1104L28.7048 39.3331H36.6922L22.6793 2.85474ZM12.9018 25.534L18.295 10.8887L23.6324 25.534H12.9018Z" fill="white"/>
<path d="M55.4614 12.3672V27.5472C55.4614 31.0341 53.0809 33.3076 49.5335 33.3076C46.2046 33.3076 43.9869 31.0899 43.9869 27.6494V12.3718H37.1152V29.6626C37.1152 35.9019 41.1834 39.9701 47.26 39.9701C50.5935 39.9701 53.3924 38.7566 55.4567 36.3762V39.3378H62.3284V12.3718H55.4567L55.4614 12.3672Z" fill="white"/>
<path d="M87.7132 1.26465V15.538C85.5467 13.1576 82.5293 11.7302 78.9354 11.7302C71.4314 11.7302 65.7686 17.8115 65.7686 25.8501C65.7686 33.8888 71.4268 39.9607 78.9354 39.9607C82.5293 39.9607 85.5467 38.5334 87.7132 36.153V39.3238H94.5849V1.26001H87.7132V1.26465ZM80.2836 33.303C78.2194 33.303 76.4247 32.5591 75.1229 31.3037L72.8866 33.7911V25.8548C72.8866 21.6239 76.0016 18.402 80.2883 18.402C84.5749 18.402 87.69 21.6239 87.69 25.8548C87.69 30.0856 84.5192 33.3076 80.2883 33.3076L80.2836 33.303Z" fill="white"/>
<path d="M99.7645 12.3671V39.333H106.636V12.3671H99.7645ZM103.205 0C100.773 0 98.8672 1.84578 98.8672 4.28201C98.8672 6.71824 100.773 8.56401 103.205 8.56401C105.637 8.56401 107.538 6.71824 107.538 4.28201C107.538 1.84578 105.637 0 103.205 0Z" fill="white"/>
<path d="M124.564 11.7302C116.316 11.7302 110.077 17.8115 110.077 25.8501C110.077 33.8888 116.316 39.9607 124.564 39.9607C132.812 39.9607 139.052 33.8795 139.052 25.8501C139.052 17.8208 132.812 11.7302 124.564 11.7302ZM124.564 33.303C122.5 33.303 120.705 32.5591 119.404 31.3038L117.167 33.7911V25.8548C117.167 21.6239 120.282 18.402 124.569 18.402C128.856 18.402 131.971 21.6239 131.971 25.8548C131.971 30.0856 128.8 33.3076 124.569 33.3076L124.564 33.303Z" fill="white"/>
<path d="M169.03 2.85474V31.2991L148.41 2.85474H143.389V39.3331H148.247V10.8887L168.867 39.3331H173.842V2.85474H169.03Z" fill="white"/>
<path d="M207.363 25.8501C207.363 17.8115 201.231 11.7302 193.03 11.7302C184.828 11.7302 178.705 17.8115 178.705 25.8501C178.705 33.8888 184.893 39.9607 193.192 39.9607C199.539 39.9607 204.769 36.4738 206.884 31.2945H201.812C200.278 33.9864 197 35.7857 193.248 35.7857C188.176 35.7857 184.368 32.5079 183.578 27.7471H207.261C207.312 27.1659 207.368 26.4824 207.368 25.8455L207.363 25.8501ZM183.624 23.6836C184.517 19.0854 188.222 15.9099 193.03 15.9099C197.837 15.9099 201.756 19.183 202.547 23.6836H183.619H183.624Z" fill="white"/>
<path d="M224.017 25.799L234.278 12.3672H228.778L220.953 22.7863L213.128 12.3672H207.526L217.778 25.799L207.363 39.3331H212.863L220.842 28.8117L228.88 39.3331H234.431L224.012 25.799H224.017Z" fill="white"/>
<path d="M256.962 12.3672V27.9144C256.962 32.5126 253.791 35.5811 249.081 35.5811C244.372 35.5811 241.675 32.5684 241.675 28.0214V12.3718H237.128V29.3418C237.128 35.7392 241.359 39.9654 247.654 39.9654C251.722 39.9654 254.893 38.3242 256.962 35.4184V39.3331H261.509V12.3672H256.962Z" fill="white"/>
<path d="M270.919 19.3458C270.919 17.2861 272.927 15.8588 275.991 15.8588C279.218 15.8588 281.329 17.3931 281.329 19.7177H285.983C285.983 14.9057 282.068 11.7302 276.042 11.7302C270.017 11.7302 266.265 14.9568 266.265 19.8758C266.265 29.3882 281.752 26.3244 281.752 32.136C281.752 34.3072 279.585 35.8415 276.307 35.8415C272.82 35.8415 270.496 34.2003 270.496 31.6618H265.842C265.842 36.6365 269.966 39.9607 276.261 39.9607C282.556 39.9607 286.406 36.6319 286.406 31.6618C286.406 21.9866 270.919 25.004 270.919 19.3411V19.3458Z" fill="white"/>
<path d="M125.266 26.0919C125.266 25.1899 125.996 24.46 126.898 24.46C127.799 24.46 128.534 25.1899 128.534 26.0919C128.534 26.9938 127.799 27.7284 126.898 27.7284C125.996 27.7284 125.266 26.9985 125.266 26.0919Z" fill="white"/>
<path d="M120.598 26.0919C120.598 25.1899 121.328 24.46 122.23 24.46C123.132 24.46 123.866 25.1899 123.866 26.0919C123.866 26.9938 123.132 27.7284 122.23 27.7284C121.328 27.7284 120.598 26.9985 120.598 26.0919Z" fill="white"/>
<path d="M80.9863 26.0919C80.9863 25.1899 81.7163 24.46 82.6182 24.46C83.5202 24.46 84.2548 25.1899 84.2548 26.0919C84.2548 26.9938 83.5202 27.7284 82.6182 27.7284C81.7163 27.7284 80.9863 26.9985 80.9863 26.0919Z" fill="white"/>
<path d="M76.3184 26.0919C76.3184 25.1899 77.0483 24.46 77.9503 24.46C78.8522 24.46 79.5868 25.1899 79.5868 26.0919C79.5868 26.9938 78.8522 27.7284 77.9503 27.7284C77.0483 27.7284 76.3184 26.9985 76.3184 26.0919Z" fill="white"/>
</svg>
